<svg width="193" height="100" viewBox="0 0 193 100" fill="none" xmlns="http://www.w3.org/2000/svg">
<path d="M8.76562 34.0781C8.80469 31.8385 8.86328 29.4883 8.94141 27.0273C9.01953 24.5534 9.11719 22.0729 9.23438 19.5859C9.36458 17.0859 9.49479 14.7487 9.625 12.5742C9.75521 10.3997 9.87891 8.47917 9.99609 6.8125C10.1263 5.14583 10.2305 3.92839 10.3086 3.16016C11.0508 2.95182 11.9297 2.74349 12.9453 2.53516C13.9609 2.3138 15.0156 2.13802 16.1094 2.00781C17.2031 1.86458 18.2839 1.73438 19.3516 1.61719C20.4193 1.5 21.3958 1.42188 22.2812 1.38281C23.1797 1.34375 23.9414 1.32422 24.5664 1.32422C25.1914 1.32422 25.582 1.35026 25.7383 1.40234C26.4023 3.45964 27.0273 5.53646 27.6133 7.63281C28.2122 9.71615 28.9349 11.7344 29.7812 13.6875C29.9375 14.0391 30.2044 14.306 30.582 14.4883C30.9596 14.6706 31.3177 14.625 31.6562 14.3516C31.8125 14.2214 32.0469 13.8568 32.3594 13.2578C32.6719 12.6589 33.0104 11.9232 33.375 11.0508C33.7526 10.1654 34.1497 9.20182 34.5664 8.16016C34.9831 7.11849 35.3737 6.12891 35.7383 5.19141C36.1159 4.24089 36.4414 3.38802 36.7148 2.63281C37.0013 1.86458 37.1966 1.31771 37.3008 0.992188C38.0951 0.809896 39.1758 0.666667 40.543 0.5625C41.8971 0.458333 43.3294 0.39974 44.8398 0.386719C45.0482 0.386719 45.263 0.386719 45.4844 0.386719C46.7474 0.386719 48.0039 0.419271 49.2539 0.484375C50.6862 0.5625 51.8906 0.679688 52.8672 0.835938C53.1276 7.17708 53.349 13.4857 53.5312 19.7617C53.7266 26.0247 54.013 32.3984 54.3906 38.8828C53.8047 39.2344 53.0104 39.4818 52.0078 39.625C51.0052 39.7682 49.9245 39.8594 48.7656 39.8984C48.3359 39.9115 47.8997 39.918 47.457 39.918C46.7279 39.918 45.9857 39.8984 45.2305 39.8594C44.0326 39.7943 42.9258 39.7096 41.9102 39.6055C41.8841 39.1497 41.8385 38.4661 41.7734 37.5547C41.7214 36.6302 41.6628 35.582 41.5977 34.4102C41.5326 33.2253 41.4674 32.0143 41.4023 30.7773C41.3372 29.5404 41.2721 28.388 41.207 27.3203C41.1419 26.2526 41.0833 25.3542 41.0312 24.625C40.9792 23.8828 40.9401 23.4466 40.9141 23.3164C40.7318 22.6914 40.4844 22.3789 40.1719 22.3789C40.1328 22.3789 40.1003 22.3854 40.0742 22.3984C39.7227 22.4766 39.4362 22.7435 39.2148 23.1992C38.8893 23.9154 38.4596 24.8919 37.9258 26.1289C37.4049 27.3529 36.8385 28.6875 36.2266 30.1328C35.6146 31.5651 34.9701 33.043 34.293 34.5664C33.6289 36.0768 32.9909 37.5156 32.3789 38.8828C31.6497 38.8828 30.9076 38.9023 30.1523 38.9414C29.9831 38.9544 29.8073 38.9609 29.625 38.9609C29.0521 38.9609 28.4792 38.9089 27.9062 38.8047C27.1901 37.5286 26.5195 36.207 25.8945 34.8398C25.2826 33.4596 24.7096 32.112 24.1758 30.7969C23.6419 29.4688 23.1602 28.2253 22.7305 27.0664C22.3138 25.9076 21.9297 24.8854 21.5781 24C21.4479 23.6224 21.194 23.375 20.8164 23.2578C20.4518 23.1406 20.1589 23.3099 19.9375 23.7656C19.8073 24.026 19.6966 24.5534 19.6055 25.3477C19.5143 26.1289 19.4362 27.0469 19.3711 28.1016C19.306 29.1562 19.2474 30.2826 19.1953 31.4805C19.1562 32.6784 19.1237 33.8177 19.0977 34.8984C19.0716 35.9792 19.0521 36.9557 19.0391 37.8281C19.026 38.6875 19.0065 39.319 18.9805 39.7227C17.3008 40.0742 15.6471 40.2565 14.0195 40.2695C13.9284 40.2695 13.8372 40.2695 13.7461 40.2695C12.1966 40.2695 10.543 40.1654 8.78516 39.957C8.75911 38.9935 8.74609 37.9453 8.74609 36.8125C8.74609 35.9531 8.7526 35.0417 8.76562 34.0781ZM57.7891 32.8086C57.8411 31.0768 58.082 29.3581 58.5117 27.6523C58.9414 25.9336 59.4622 24.4883 60.0742 23.3164C60.7122 22.9128 61.6237 22.5352 62.8086 22.1836C64.0065 21.819 65.3216 21.4674 66.7539 21.1289C68.1992 20.7773 69.7031 20.4583 71.2656 20.1719C72.8411 19.8724 74.3516 19.599 75.7969 19.3516C75.7188 19.026 75.6406 18.6615 75.5625 18.2578C75.4844 17.8411 75.4062 17.5547 75.3281 17.3984C74.7161 17.0208 73.8568 16.7409 72.75 16.5586C71.6562 16.3763 70.4648 16.2591 69.1758 16.207C68.1471 16.168 67.099 16.1484 66.0312 16.1484C65.7578 16.1484 65.4909 16.1484 65.2305 16.1484C63.9023 16.1615 62.7044 16.168 61.6367 16.168C61.6237 15.9727 61.6172 15.7578 61.6172 15.5234C61.6172 15.0807 61.6367 14.612 61.6758 14.1172C61.7279 13.388 61.8125 12.6784 61.9297 11.9883C62.0599 11.2982 62.2096 10.6927 62.3789 10.1719C62.5482 9.65104 62.7565 9.27344 63.0039 9.03906C64.8268 8.85677 66.6888 8.71354 68.5898 8.60938C69.8398 8.53125 71.0898 8.49219 72.3398 8.49219C73.0169 8.49219 73.681 8.50521 74.332 8.53125C76.2591 8.58333 78.1471 8.73958 79.9961 9C81.8581 9.26042 83.6615 9.63151 85.4062 10.1133C85.9141 10.7513 86.3307 11.7214 86.6562 13.0234C86.9948 14.3125 87.2682 15.7969 87.4766 17.4766C87.6849 19.1562 87.8346 20.9596 87.9258 22.8867C88.0299 24.8008 88.0885 26.6823 88.1016 28.5312C88.1016 28.8958 88.1016 29.2669 88.1016 29.6445C88.1016 31.1029 88.082 32.5026 88.043 33.8438C87.9909 35.5234 87.9258 36.9492 87.8477 38.1211C86.9102 38.3815 85.7448 38.6354 84.3516 38.8828C82.9714 39.1172 81.4805 39.319 79.8789 39.4883C78.2773 39.6706 76.6172 39.8203 74.8984 39.9375C73.1797 40.0547 71.526 40.1328 69.9375 40.1719C69.3385 40.1849 68.7591 40.1914 68.1992 40.1914C67.2617 40.1914 66.3763 40.1719 65.543 40.1328C64.1888 40.0677 63.0755 39.957 62.2031 39.8008C61.8516 39.319 61.4544 38.7786 61.0117 38.1797C60.582 37.5807 60.1589 36.9622 59.7422 36.3242C59.3255 35.6862 58.9414 35.0612 58.5898 34.4492C58.2513 33.8242 57.9844 33.2773 57.7891 32.8086ZM69.9961 30.0547C70.0221 30.5495 70.0807 31.0378 70.1719 31.5195C70.276 32.0013 70.3932 32.431 70.5234 32.8086C71.0182 33.0169 71.6367 33.1211 72.3789 33.1211C72.5612 33.1211 72.7565 33.1146 72.9648 33.1016C73.9805 33.0365 75.2044 32.9388 76.6367 32.8086C76.6107 31.6107 76.5911 30.4648 76.5781 29.3711C76.5651 28.2643 76.5326 27.138 76.4805 25.9922C75.4128 26.2005 74.3906 26.3698 73.4141 26.5C72.4375 26.6172 71.4609 26.9167 70.4844 27.3984C70.2891 27.737 70.1523 28.1406 70.0742 28.6094C70.0091 28.9609 69.9831 29.3255 69.9961 29.7031C69.9961 29.8203 69.9961 29.9375 69.9961 30.0547ZM90.6406 20.7578C90.6146 20.276 90.6016 19.7812 90.6016 19.2734C90.6016 18.5182 90.6341 17.724 90.6992 16.8906C90.8164 15.5104 91.0638 14.1758 91.4414 12.8867C92.2617 12.5352 94.8984 12.2422 99.3516 12.0078C99.3516 11.3698 99.3581 10.6146 99.3711 9.74219C99.3841 8.86979 99.3971 7.99089 99.4102 7.10547C99.4232 6.20703 99.4427 5.34115 99.4688 4.50781C99.5078 3.66146 99.5404 2.95833 99.5664 2.39844C100.335 2.24219 101.233 2.125 102.262 2.04688C103.29 1.96875 104.326 1.91016 105.367 1.87109C106.422 1.81901 107.457 1.79297 108.473 1.79297C109.488 1.79297 110.387 1.79297 111.168 1.79297C111.168 2.43099 111.168 3.19271 111.168 4.07812C111.168 4.96354 111.155 5.875 111.129 6.8125C111.116 7.73698 111.103 8.63542 111.09 9.50781C111.077 10.3672 111.07 11.1159 111.07 11.7539C112.138 11.7539 113.18 11.7539 114.195 11.7539C115.211 11.7539 116.135 11.7604 116.969 11.7734C117.815 11.7865 118.544 11.8125 119.156 11.8516C119.781 11.8776 120.224 11.9297 120.484 12.0078C120.536 12.4896 120.562 13.0495 120.562 13.6875C120.562 14.3255 120.543 14.9635 120.504 15.6016C120.465 16.2396 120.4 16.8451 120.309 17.418C120.23 17.9909 120.152 18.4661 120.074 18.8438C119.436 18.9219 118.72 18.987 117.926 19.0391C117.145 19.0911 116.35 19.1432 115.543 19.1953C114.749 19.2474 113.954 19.2865 113.16 19.3125C112.379 19.3385 111.669 19.3841 111.031 19.4492C110.849 20.2435 110.719 21.4219 110.641 22.9844C110.562 24.5469 110.504 26.2526 110.465 28.1016C110.439 29.4818 110.426 30.875 110.426 32.2812C110.426 32.75 110.426 33.2188 110.426 33.6875C110.439 35.5625 110.458 37.2161 110.484 38.6484C108.674 38.8828 106.858 39.1432 105.035 39.4297C103.863 39.612 102.704 39.6966 101.559 39.6836C100.908 39.6836 100.257 39.6576 99.6055 39.6055C99.3971 37.418 99.2409 35.556 99.1367 34.0195C99.0456 32.4961 98.987 31.0443 98.9609 29.6641C98.9479 28.974 98.9414 28.2773 98.9414 27.5742C98.9414 26.8581 98.9479 26.1484 98.9609 25.4453C98.987 24.013 99 22.3333 99 20.4062C98.2839 20.3411 97.5547 20.3086 96.8125 20.3086C96.1354 20.3086 95.4518 20.3346 94.7617 20.3867C93.2904 20.5039 91.9167 20.6276 90.6406 20.7578ZM122.887 29.6836C122.848 29.0326 122.828 28.362 122.828 27.6719C122.828 26.7604 122.861 25.8229 122.926 24.8594C123.03 23.1667 123.219 21.526 123.492 19.9375C123.779 18.349 124.137 16.8776 124.566 15.5234C124.996 14.1562 125.491 13.0625 126.051 12.2422C126.741 11.8646 127.77 11.5065 129.137 11.168C130.517 10.8164 132.053 10.5104 133.746 10.25C135.439 9.97656 137.21 9.74219 139.059 9.54688C140.882 9.33854 142.6 9.19531 144.215 9.11719C145.178 9.0651 146.077 9.03906 146.91 9.03906C147.457 9.03906 147.978 9.05208 148.473 9.07812C149.697 9.13021 150.543 9.25391 151.012 9.44922C151.624 10.5169 152.151 11.7409 152.594 13.1211C153.049 14.5013 153.421 15.9596 153.707 17.4961C153.993 19.0326 154.202 20.6081 154.332 22.2227C154.436 23.3945 154.482 24.5404 154.469 25.6602C154.469 26.0898 154.462 26.513 154.449 26.9297C153.59 27.0599 152.398 27.2031 150.875 27.3594C149.365 27.5156 147.704 27.6654 145.895 27.8086C144.098 27.9388 142.242 28.056 140.328 28.1602C138.427 28.2643 136.676 28.3424 135.074 28.3945C135.126 28.8763 135.204 29.319 135.309 29.7227C135.426 30.1263 135.576 30.4714 135.758 30.7578C136.161 30.9922 136.773 31.2135 137.594 31.4219C138.427 31.6172 139.352 31.7799 140.367 31.9102C141.383 32.0273 142.444 32.138 143.551 32.2422C144.658 32.3464 145.693 32.4375 146.656 32.5156C147.633 32.5938 148.486 32.6784 149.215 32.7695C149.957 32.8477 150.458 32.9388 150.719 33.043C150.732 33.2253 150.738 33.4206 150.738 33.6289C150.738 34.0456 150.719 34.4948 150.68 34.9766C150.628 35.7057 150.543 36.4089 150.426 37.0859C150.309 37.75 150.159 38.349 149.977 38.8828C149.807 39.4167 149.605 39.7617 149.371 39.918C147.535 39.918 145.536 39.8529 143.375 39.7227C141.214 39.5924 139.039 39.3906 136.852 39.1172C134.664 38.8568 132.516 38.4987 130.406 38.043C128.297 37.5872 126.363 37.0664 124.605 36.4805C124.098 35.8685 123.701 34.9635 123.414 33.7656C123.141 32.5677 122.965 31.207 122.887 29.6836ZM135.25 22.3203C135.536 22.3333 135.823 22.3398 136.109 22.3398C137.268 22.3529 138.362 22.2682 139.391 22.0859C140.68 21.8776 141.793 21.6497 142.73 21.4023C142.757 21.0898 142.77 20.7708 142.77 20.4453C142.77 19.9766 142.743 19.5078 142.691 19.0391C142.613 18.2057 142.411 17.4701 142.086 16.832C141.63 16.8581 141.194 16.8841 140.777 16.9102C140.374 16.9232 139.951 16.9557 139.508 17.0078C139.065 17.0599 138.596 17.138 138.102 17.2422C137.607 17.3464 137.053 17.5352 136.441 17.8086C136.207 18.5768 135.979 19.2604 135.758 19.8594C135.549 20.4583 135.38 21.2786 135.25 22.3203ZM157.418 26.0312C157.392 25.4974 157.379 24.9635 157.379 24.4297C157.379 22.5286 157.561 20.6276 157.926 18.7266C158.395 16.2786 159.169 13.9674 160.25 11.793C161.982 11.207 163.785 10.7122 165.66 10.3086C167.548 9.89193 169.449 9.56641 171.363 9.33203C173.29 9.08464 175.204 8.91536 177.105 8.82422C178.316 8.77214 179.521 8.74609 180.719 8.74609C181.396 8.74609 182.066 8.7526 182.73 8.76562C183.082 9.80729 183.297 10.9466 183.375 12.1836C183.44 13.1081 183.473 13.987 183.473 14.8203C183.473 15.0938 183.466 15.3672 183.453 15.6406C181.396 15.9401 179.345 16.1745 177.301 16.3438C175.27 16.513 173.225 16.7734 171.168 17.125C170.738 17.737 170.471 18.401 170.367 19.1172C170.263 19.8333 170.198 20.556 170.172 21.2852C172.385 21.6888 174.586 22.0599 176.773 22.3984C178.961 22.724 181.174 23.056 183.414 23.3945C183.844 24.306 184.124 25.3021 184.254 26.3828C184.332 26.9818 184.371 27.5872 184.371 28.1992C184.371 28.681 184.345 29.1693 184.293 29.6641C184.189 30.7708 183.967 31.8516 183.629 32.9062C183.303 33.9609 182.887 34.9115 182.379 35.7578C180.673 36.5521 178.883 37.2357 177.008 37.8086C175.146 38.3685 173.258 38.8307 171.344 39.1953C169.443 39.5729 167.529 39.8984 165.602 40.1719C163.688 40.4583 161.799 40.6927 159.938 40.875C159.703 40.7448 159.495 40.3477 159.312 39.6836C159.143 39.0195 159.007 38.2969 158.902 37.5156C158.785 36.7344 158.701 35.9661 158.648 35.2109C158.609 34.7161 158.59 34.319 158.59 34.0195C158.59 33.8763 158.596 33.7526 158.609 33.6484C159.625 33.5703 160.738 33.4727 161.949 33.3555C163.16 33.2253 164.339 33.0625 165.484 32.8672C166.63 32.6589 167.691 32.4375 168.668 32.2031C169.645 31.9557 170.387 31.7279 170.895 31.5195C170.999 31.194 171.077 30.7839 171.129 30.2891C171.155 30.0417 171.168 29.8008 171.168 29.5664C171.168 29.319 171.155 29.0911 171.129 28.8828C170.829 28.6745 170.348 28.5052 169.684 28.375C169.02 28.2318 168.251 28.0951 167.379 27.9648C166.52 27.8346 165.595 27.7174 164.605 27.6133C163.629 27.4961 162.678 27.3724 161.754 27.2422C160.829 27.112 159.99 26.9557 159.234 26.7734C158.479 26.5781 157.874 26.3307 157.418 26.0312ZM0.425781 69.5625C0.425781 68.9245 0.445312 68.2539 0.484375 67.5508C0.523438 66.8346 0.582031 66.1185 0.660156 65.4023C0.738281 64.6862 0.829427 63.9961 0.933594 63.332C1.03776 62.6549 1.16146 62.0495 1.30469 61.5156C2.02083 61.2812 3.08203 61.0924 4.48828 60.9492C5.90755 60.793 7.50911 60.6758 9.29297 60.5977C11.0898 60.5195 12.9909 60.4805 14.9961 60.4805C17.0143 60.4805 18.9674 60.5065 20.8555 60.5586C22.7565 60.6107 24.5208 60.6953 26.1484 60.8125C27.7891 60.9167 29.1302 61.0729 30.1719 61.2812C30.9401 61.9714 31.7214 62.8893 32.5156 64.0352C33.3099 65.181 34.0195 66.4896 34.6445 67.9609C35.2695 69.4323 35.7513 70.9948 36.0898 72.6484C36.3242 73.7812 36.4479 74.9401 36.4609 76.125C36.4609 76.6589 36.4349 77.1927 36.3828 77.7266C35.7969 78.4688 34.9896 79.4453 33.9609 80.6562C32.9323 81.8672 31.8451 83.0326 30.6992 84.1523C30.9336 84.5299 31.2266 85.0703 31.5781 85.7734C31.9297 86.4635 32.3008 87.2057 32.6914 88C33.0951 88.7943 33.5052 89.6276 33.9219 90.5C34.3385 91.3724 34.7227 92.1797 35.0742 92.9219C35.4388 93.6641 35.7513 94.3281 36.0117 94.9141C36.2852 95.487 36.474 95.9036 36.5781 96.1641C36.1224 96.4635 35.4453 96.75 34.5469 97.0234C33.6615 97.2969 32.6784 97.5573 31.5977 97.8047C30.5169 98.0391 29.4102 98.2474 28.2773 98.4297C27.1445 98.625 26.1354 98.7357 25.25 98.7617C24.638 98.0195 24.0846 97.3164 23.5898 96.6523C23.1081 95.9753 22.6328 95.2982 22.1641 94.6211C21.6953 93.944 21.2266 93.2669 20.7578 92.5898C20.2891 91.8997 19.7747 91.1576 19.2148 90.3633C19.0065 90.0638 18.7786 89.7513 18.5312 89.4258C18.2969 89.0872 18.0495 88.7943 17.7891 88.5469C17.5417 88.2865 17.2682 88.0977 16.9688 87.9805C16.6823 87.8633 16.3893 87.8698 16.0898 88C15.7122 88.1562 15.4844 88.4753 15.4062 88.957C15.3281 89.4388 15.2891 89.9076 15.2891 90.3633C15.3021 91.1966 15.3086 92.0299 15.3086 92.8633C15.3086 93.2669 15.3086 93.6771 15.3086 94.0938C15.2956 95.3438 15.263 96.6068 15.2109 97.8828C14.7031 98.0391 14.0391 98.1888 13.2188 98.332C12.3984 98.4883 11.4805 98.6055 10.4648 98.6836C9.44922 98.7617 8.36198 98.8008 7.20312 98.8008C6.04427 98.8008 4.87891 98.7357 3.70703 98.6055C3.52474 96.3138 3.38151 93.944 3.27734 91.4961C3.1862 89.0352 3.12109 86.5807 3.08203 84.1328C3.05599 82.6745 3.04297 81.2161 3.04297 79.7578C3.04297 78.7943 3.04948 77.8177 3.0625 76.8281C3.08854 74.3802 3.11458 72.0234 3.14062 69.7578C2.8151 69.7318 2.39193 69.7188 1.87109 69.7188C1.35026 69.7188 0.86849 69.6667 0.425781 69.5625ZM15.2109 72.3164C15.1849 73.1758 15.1719 74.0352 15.1719 74.8945C15.1719 75.7409 15.1914 76.5352 15.2305 77.2773C15.2695 78.0195 15.3477 78.6315 15.4648 79.1133C15.9987 79.1133 16.6367 79.0807 17.3789 79.0156C18.1211 78.9505 18.8698 78.8398 19.625 78.6836C20.3932 78.5273 21.1159 78.3125 21.793 78.0391C22.4701 77.7526 23.0234 77.3685 23.4531 76.8867C23.4792 76.6523 23.4922 76.4049 23.4922 76.1445C23.4922 75.819 23.4727 75.474 23.4336 75.1094C23.3685 74.4583 23.2904 73.8398 23.1992 73.2539C23.1081 72.6549 23.0039 72.1276 22.8867 71.6719C22.7826 71.2031 22.7174 70.8841 22.6914 70.7148C22.431 70.4154 21.9557 70.168 21.2656 69.9727C20.5885 69.7773 19.8724 69.6406 19.1172 69.5625C18.6615 69.5104 18.2188 69.4844 17.7891 69.4844C17.4896 69.4844 17.1966 69.4974 16.9102 69.5234C16.207 69.5755 15.6862 69.7318 15.3477 69.9922C15.2956 70.6823 15.25 71.457 15.2109 72.3164ZM39.9961 91.3594C39.9701 90.1354 39.957 88.7682 39.957 87.2578C39.957 85.7474 39.957 84.2435 39.957 82.7461C39.957 81.2357 39.9766 79.7773 40.0156 78.3711C40.0547 76.9518 40.1003 75.7083 40.1523 74.6406C40.4779 74.3151 40.8945 73.8724 41.4023 73.3125C41.9102 72.7526 42.4375 72.1862 42.9844 71.6133C43.5312 71.0404 44.0521 70.513 44.5469 70.0312C45.0547 69.5365 45.4844 69.1784 45.8359 68.957C47.0599 68.8789 48.5312 68.7682 50.25 68.625C51.9818 68.4688 53.7721 68.3516 55.6211 68.2734C57.0143 68.2214 58.388 68.1953 59.7422 68.1953C60.1979 68.1953 60.6471 68.1953 61.0898 68.1953C62.8867 68.2214 64.4818 68.3711 65.875 68.6445C66.8906 69.4388 67.8672 70.4805 68.8047 71.7695C69.7552 73.0456 70.6211 74.2435 71.4023 75.3633C71.4805 76.457 71.5521 77.8112 71.6172 79.4258C71.6823 81.0404 71.7279 82.6745 71.7539 84.3281C71.7669 85.4349 71.7734 86.4831 71.7734 87.4727C71.7734 87.9544 71.7734 88.4297 71.7734 88.8984C71.7604 90.3047 71.7018 91.3398 71.5977 92.0039C70.8294 92.9674 70.0742 93.9635 69.332 94.9922C68.6029 96.0078 67.8086 96.9974 66.9492 97.9609C65.6732 98.1953 64.0651 98.3646 62.125 98.4688C60.1979 98.5859 58.1732 98.6445 56.0508 98.6445C53.9284 98.6445 51.8255 98.599 49.7422 98.5078C47.6719 98.4297 45.849 98.2995 44.2734 98.1172C43.9219 97.7656 43.5378 97.3164 43.1211 96.7695C42.7174 96.2096 42.3138 95.6107 41.9102 94.9727C41.5195 94.3216 41.1484 93.6771 40.7969 93.0391C40.4453 92.401 40.1784 91.8411 39.9961 91.3594ZM51.7539 83.8008C51.7539 84.8424 51.7539 85.8451 51.7539 86.8086C51.7539 87.7591 51.7669 88.612 51.793 89.3672C51.819 90.1094 51.832 90.6693 51.832 91.0469C52.4049 91.3073 53.056 91.4701 53.7852 91.5352C54.1237 91.5612 54.4557 91.5742 54.7812 91.5742C55.1849 91.5742 55.5951 91.5547 56.0117 91.5156C56.7669 91.4375 57.4701 91.2812 58.1211 91.0469C58.7852 90.8125 59.319 90.5326 59.7227 90.207C59.7747 88.2148 59.8268 85.9948 59.8789 83.5469C59.8919 83.2083 59.8984 82.8698 59.8984 82.5312C59.8984 80.4089 59.7552 78.2474 59.4688 76.0469C58.7786 76.0729 58.1211 76.0924 57.4961 76.1055C56.8711 76.1185 56.2721 76.151 55.6992 76.2031C55.1263 76.2552 54.5599 76.3398 54 76.457C53.4401 76.5742 52.8672 76.7695 52.2812 77.043C52.151 77.3034 52.0469 77.7786 51.9688 78.4688C51.9036 79.1458 51.8516 79.9466 51.8125 80.8711C51.7734 81.7826 51.7539 82.7591 51.7539 83.8008ZM74.8398 68.7617C75.7773 68.6836 76.819 68.6055 77.9648 68.5273C79.1237 68.4362 80.2435 68.3581 81.3242 68.293C82.4049 68.2279 83.3555 68.1823 84.1758 68.1562C84.4362 68.1432 84.6706 68.1367 84.8789 68.1367C85.2826 68.1367 85.5495 68.1562 85.6797 68.1953C85.8359 68.7552 86.1094 69.4453 86.5 70.2656C86.9036 71.0729 87.3268 71.8802 87.7695 72.6875C88.2122 73.4818 88.6159 74.2109 88.9805 74.875C89.3581 75.5391 89.612 76.0208 89.7422 76.3203C89.7682 76.3984 89.8333 76.5221 89.9375 76.6914C90.0547 76.8477 90.1849 77.0104 90.3281 77.1797C90.4714 77.349 90.6211 77.4987 90.7773 77.6289C90.9466 77.7461 91.0964 77.8047 91.2266 77.8047C91.6302 77.8047 91.9622 77.668 92.2227 77.3945C92.4961 77.1081 92.6719 76.8802 92.75 76.7109C93.4922 75.3568 94.2018 73.9505 94.8789 72.4922C95.569 71.0208 96.3242 69.6146 97.1445 68.2734C98.2513 68.1823 99.306 68.1367 100.309 68.1367C100.439 68.1367 100.569 68.1367 100.699 68.1367C101.806 68.1497 102.796 68.1888 103.668 68.2539C104.553 68.319 105.309 68.4036 105.934 68.5078C106.559 68.599 107.001 68.6836 107.262 68.7617C106.402 69.9596 105.504 71.3268 104.566 72.8633C103.629 74.3997 102.659 75.9818 101.656 77.6094C100.654 79.224 99.651 80.832 98.6484 82.4336C97.6458 84.0352 96.6823 85.5326 95.7578 86.9258C95.7057 88.931 95.6471 90.8451 95.582 92.668C95.5299 94.4909 95.4779 96.1771 95.4258 97.7266C94.6315 97.8828 93.7852 97.987 92.8867 98.0391C92.0013 98.0911 91.1094 98.1172 90.2109 98.1172C89.3125 98.1172 88.4206 98.0911 87.5352 98.0391C86.6628 97.987 85.8294 97.9609 85.0352 97.9609C85.0352 96.0469 85.0091 94.1523 84.957 92.2773C84.9049 90.3893 84.8464 88.4818 84.7812 86.5547C84.2474 85.9427 83.6615 85.1745 83.0234 84.25C82.3854 83.3125 81.7279 82.3034 81.0508 81.2227C80.3737 80.1419 79.6966 79.0026 79.0195 77.8047C78.3555 76.6068 77.737 75.4479 77.1641 74.3281C76.5911 73.2083 76.1029 72.1667 75.6992 71.2031C75.3086 70.2396 75.0221 69.4258 74.8398 68.7617ZM109.508 91.8086C109.56 90.0768 109.801 88.3581 110.23 86.6523C110.66 84.9336 111.181 83.4883 111.793 82.3164C112.431 81.9128 113.342 81.5352 114.527 81.1836C115.725 80.819 117.04 80.4674 118.473 80.1289C119.918 79.7773 121.422 79.4583 122.984 79.1719C124.56 78.8724 126.07 78.599 127.516 78.3516C127.438 78.026 127.359 77.6615 127.281 77.2578C127.203 76.8411 127.125 76.5547 127.047 76.3984C126.435 76.0208 125.576 75.7409 124.469 75.5586C123.375 75.3763 122.184 75.2591 120.895 75.207C119.866 75.168 118.818 75.1484 117.75 75.1484C117.477 75.1484 117.21 75.1484 116.949 75.1484C115.621 75.1615 114.423 75.168 113.355 75.168C113.342 74.9727 113.336 74.7578 113.336 74.5234C113.336 74.0807 113.355 73.612 113.395 73.1172C113.447 72.388 113.531 71.6784 113.648 70.9883C113.779 70.2982 113.928 69.6927 114.098 69.1719C114.267 68.651 114.475 68.2734 114.723 68.0391C116.546 67.8568 118.408 67.7135 120.309 67.6094C121.559 67.5312 122.809 67.4922 124.059 67.4922C124.736 67.4922 125.4 67.5052 126.051 67.5312C127.978 67.5833 129.866 67.7396 131.715 68C133.577 68.2604 135.38 68.6315 137.125 69.1133C137.633 69.7513 138.049 70.7214 138.375 72.0234C138.714 73.3125 138.987 74.7969 139.195 76.4766C139.404 78.1562 139.553 79.9596 139.645 81.8867C139.749 83.8008 139.807 85.6823 139.82 87.5312C139.82 87.8958 139.82 88.2669 139.82 88.6445C139.82 90.1029 139.801 91.5026 139.762 92.8438C139.71 94.5234 139.645 95.9492 139.566 97.1211C138.629 97.3815 137.464 97.6354 136.07 97.8828C134.69 98.1172 133.199 98.319 131.598 98.4883C129.996 98.6706 128.336 98.8203 126.617 98.9375C124.898 99.0547 123.245 99.1328 121.656 99.1719C121.057 99.1849 120.478 99.1914 119.918 99.1914C118.98 99.1914 118.095 99.1719 117.262 99.1328C115.908 99.0677 114.794 98.957 113.922 98.8008C113.57 98.319 113.173 97.7786 112.73 97.1797C112.301 96.5807 111.878 95.9622 111.461 95.3242C111.044 94.6862 110.66 94.0612 110.309 93.4492C109.97 92.8242 109.703 92.2773 109.508 91.8086ZM121.715 89.0547C121.741 89.5495 121.799 90.0378 121.891 90.5195C121.995 91.0013 122.112 91.431 122.242 91.8086C122.737 92.0169 123.355 92.1211 124.098 92.1211C124.28 92.1211 124.475 92.1146 124.684 92.1016C125.699 92.0365 126.923 91.9388 128.355 91.8086C128.329 90.6107 128.31 89.4648 128.297 88.3711C128.284 87.2643 128.251 86.138 128.199 84.9922C127.132 85.2005 126.109 85.3698 125.133 85.5C124.156 85.6172 123.18 85.9167 122.203 86.3984C122.008 86.737 121.871 87.1406 121.793 87.6094C121.728 87.9609 121.702 88.3255 121.715 88.7031C121.715 88.8203 121.715 88.9375 121.715 89.0547ZM144.703 66.7109C144.716 64.7318 144.762 63.1367 144.84 61.9258C145.048 61.8477 145.432 61.763 145.992 61.6719C146.552 61.5677 147.21 61.4896 147.965 61.4375C148.733 61.3854 149.547 61.3529 150.406 61.3398C151.279 61.3268 152.118 61.3138 152.926 61.3008C153.186 61.3008 153.44 61.3008 153.688 61.3008C154.182 61.3008 154.651 61.3073 155.094 61.3203C155.745 61.3464 156.233 61.3724 156.559 61.3984C156.533 62.6484 156.507 64.3542 156.48 66.5156C156.454 68.6771 156.435 71.0143 156.422 73.5273C156.409 76.0273 156.402 78.612 156.402 81.2812C156.402 83.9505 156.402 86.4245 156.402 88.7031C156.402 90.9818 156.402 92.9544 156.402 94.6211C156.402 96.2878 156.402 97.388 156.402 97.9219C155.491 98.026 154.736 98.1107 154.137 98.1758C153.538 98.2409 152.874 98.2799 152.145 98.293C152.001 98.293 151.852 98.293 151.695 98.293C151.057 98.293 150.335 98.2734 149.527 98.2344C148.512 98.1823 147.105 98.1172 145.309 98.0391C145.283 96.9974 145.243 95.5521 145.191 93.7031C145.139 91.8542 145.087 89.7969 145.035 87.5312C144.983 85.2526 144.924 82.8698 144.859 80.3828C144.794 77.8828 144.749 75.474 144.723 73.1562C144.71 71.6068 144.703 70.1354 144.703 68.7422C144.703 68.0391 144.703 67.362 144.703 66.7109ZM160.855 88.6836C160.816 88.0326 160.797 87.362 160.797 86.6719C160.797 85.7604 160.829 84.8229 160.895 83.8594C160.999 82.1667 161.188 80.526 161.461 78.9375C161.747 77.349 162.105 75.8776 162.535 74.5234C162.965 73.1562 163.46 72.0625 164.02 71.2422C164.71 70.8646 165.738 70.5065 167.105 70.168C168.486 69.8164 170.022 69.5104 171.715 69.25C173.408 68.9766 175.178 68.7422 177.027 68.5469C178.85 68.3385 180.569 68.1953 182.184 68.1172C183.147 68.0651 184.046 68.0391 184.879 68.0391C185.426 68.0391 185.947 68.0521 186.441 68.0781C187.665 68.1302 188.512 68.2539 188.98 68.4492C189.592 69.5169 190.12 70.7409 190.562 72.1211C191.018 73.5013 191.389 74.9596 191.676 76.4961C191.962 78.0326 192.171 79.6081 192.301 81.2227C192.405 82.3945 192.451 83.5404 192.438 84.6602C192.438 85.0898 192.431 85.513 192.418 85.9297C191.559 86.0599 190.367 86.2031 188.844 86.3594C187.333 86.5156 185.673 86.6654 183.863 86.8086C182.066 86.9388 180.211 87.056 178.297 87.1602C176.396 87.2643 174.645 87.3424 173.043 87.3945C173.095 87.8763 173.173 88.319 173.277 88.7227C173.395 89.1263 173.544 89.4714 173.727 89.7578C174.13 89.9922 174.742 90.2135 175.562 90.4219C176.396 90.6172 177.32 90.7799 178.336 90.9102C179.352 91.0273 180.413 91.138 181.52 91.2422C182.626 91.3464 183.661 91.4375 184.625 91.5156C185.602 91.5938 186.454 91.6784 187.184 91.7695C187.926 91.8477 188.427 91.9388 188.688 92.043C188.701 92.2253 188.707 92.4206 188.707 92.6289C188.707 93.0456 188.688 93.4948 188.648 93.9766C188.596 94.7057 188.512 95.4089 188.395 96.0859C188.277 96.75 188.128 97.349 187.945 97.8828C187.776 98.4167 187.574 98.7617 187.34 98.918C185.504 98.918 183.505 98.8529 181.344 98.7227C179.182 98.5924 177.008 98.3906 174.82 98.1172C172.633 97.8568 170.484 97.4987 168.375 97.043C166.266 96.5872 164.332 96.0664 162.574 95.4805C162.066 94.8685 161.669 93.9635 161.383 92.7656C161.109 91.5677 160.934 90.207 160.855 88.6836ZM173.219 81.3203C173.505 81.3333 173.792 81.3398 174.078 81.3398C175.237 81.3529 176.331 81.2682 177.359 81.0859C178.648 80.8776 179.762 80.6497 180.699 80.4023C180.725 80.0898 180.738 79.7708 180.738 79.4453C180.738 78.9766 180.712 78.5078 180.66 78.0391C180.582 77.2057 180.38 76.4701 180.055 75.832C179.599 75.8581 179.163 75.8841 178.746 75.9102C178.342 75.9232 177.919 75.9557 177.477 76.0078C177.034 76.0599 176.565 76.138 176.07 76.2422C175.576 76.3464 175.022 76.5352 174.41 76.8086C174.176 77.5768 173.948 78.2604 173.727 78.8594C173.518 79.4583 173.349 80.2786 173.219 81.3203Z" fill="white"/>
</svg>
