<svg width="517" height="414" viewBox="0 0 517 414" fill="none" xmlns="http://www.w3.org/2000/svg">
<g clip-path="url(#clip0_1_48)">
<path fill-rule="evenodd" clip-rule="evenodd" d="M311.5 1.5C315.295 2.617 319.295 3.283 323.5 3.5C328.181 3.669 332.848 4.002 337.5 4.5C349.503 41.968 361.503 79.302 373.5 116.5C380.894 117.515 388.227 118.849 395.5 120.5C397.838 122.04 400.505 122.706 403.5 122.5C410.48 123.718 417.48 124.718 424.5 125.5C425.513 118.113 426.847 110.779 428.5 103.5C430.04 101.162 430.706 98.495 430.5 95.5C432.508 82.765 434.841 70.099 437.5 57.5C453.559 57.837 469.559 59.004 485.5 61C487.221 62.527 489.221 63.527 491.5 64C497.545 70.926 501.878 78.76 504.5 87.5C505.114 91.135 505.448 94.802 505.5 98.5C505.08 105.526 504.413 112.526 503.5 119.5C502.194 124.616 501.527 129.949 501.5 135.5C500.253 141.63 499.586 147.963 499.5 154.5C497.697 162.936 496.697 171.603 496.5 180.5C493.843 198.424 491.843 216.424 490.5 234.5C482.605 231.219 474.939 227.386 467.5 223C444.173 214.168 420.173 207.835 395.5 204C331.75 195.899 267.75 193.232 203.5 196C156.504 196.959 110.504 203.959 65.5 217C58.35 219.414 51.35 222.081 44.5 225C38.658 229.254 32.324 232.421 25.5 234.5C22.916 210.831 20.25 187.164 17.5 163.5C17.55 157.611 16.884 151.944 15.5 146.5C15.473 140.949 14.806 135.616 13.5 130.5C12.113 116.314 10.447 102.147 8.5 88C13.232 75.604 21.232 65.937 32.5 59C44.136 57.807 55.803 57.307 67.5 57.5C70.833 57.5 74.167 57.5 77.5 57.5C77.263 58.791 77.596 59.791 78.5 60.5C81.882 74.577 84.549 88.91 86.5 103.5C86.646 107.387 87.313 111.054 88.5 114.5C89.525 117.974 90.192 121.64 90.5 125.5C106.839 123.249 123.172 120.916 139.5 118.5C152.236 80.182 165.57 42.182 179.5 4.5C223.409 -0.735996 267.409 -1.736 311.5 1.5Z" fill="#FCD765"/>
<path fill-rule="evenodd" clip-rule="evenodd" d="M311.5 1.49999C315.79 1.19799 319.79 1.86399 323.5 3.49999C319.295 3.28299 315.295 2.61699 311.5 1.49999Z" fill="#8CAF8F"/>
<path fill-rule="evenodd" clip-rule="evenodd" d="M67.5 57.5C70.962 56.518 74.629 56.185 78.5 56.5C78.5 57.833 78.5 59.167 78.5 60.5C77.596 59.791 77.263 58.791 77.5 57.5C74.167 57.5 70.833 57.5 67.5 57.5Z" fill="#9CBB93"/>
<path fill-rule="evenodd" clip-rule="evenodd" d="M504.5 87.5C505.997 89.29 506.664 91.456 506.5 94C506.492 95.707 506.158 97.207 505.5 98.5C505.448 94.802 505.114 91.135 504.5 87.5Z" fill="#A7BD89"/>
<path fill-rule="evenodd" clip-rule="evenodd" d="M430.5 95.5C430.706 98.495 430.04 101.162 428.5 103.5C428.565 100.572 429.232 97.905 430.5 95.5Z" fill="#92B48E"/>
<path fill-rule="evenodd" clip-rule="evenodd" d="M86.5 103.5C88.082 106.876 88.749 110.542 88.5 114.5C87.313 111.054 86.646 107.387 86.5 103.5Z" fill="#84AC8F"/>
<path fill-rule="evenodd" clip-rule="evenodd" d="M395.5 120.5C398.428 120.565 401.095 121.232 403.5 122.5C400.505 122.706 397.838 122.04 395.5 120.5Z" fill="#99B591"/>
<path fill-rule="evenodd" clip-rule="evenodd" d="M503.5 119.5C503.745 125.084 503.078 130.417 501.5 135.5C501.527 129.949 502.194 124.616 503.5 119.5Z" fill="#59959A"/>
<path fill-rule="evenodd" clip-rule="evenodd" d="M13.4999 130.5C14.8059 135.616 15.4729 140.949 15.4999 146.5C14.0429 141.402 13.3759 136.069 13.4999 130.5Z" fill="#78A595"/>
<path fill-rule="evenodd" clip-rule="evenodd" d="M15.4999 146.5C16.8839 151.944 17.5499 157.611 17.4999 163.5C16.1159 158.056 15.4499 152.389 15.4999 146.5Z" fill="#7AA893"/>
<path fill-rule="evenodd" clip-rule="evenodd" d="M499.5 154.5C499.555 161.565 498.888 168.565 497.5 175.5C498.268 178.154 498.434 180.821 498 183.5C497.768 182.263 497.268 181.263 496.5 180.5C496.697 171.603 497.697 162.936 499.5 154.5Z" fill="#5893AB"/>
<path fill-rule="evenodd" clip-rule="evenodd" d="M490.5 234.5C493.127 237.802 495.794 241.135 498.5 244.5C499.592 249.492 499.592 254.492 498.5 259.5C499.791 259.263 500.791 259.596 501.5 260.5C500.167 260.5 498.833 260.5 497.5 260.5C493.949 284.471 490.616 308.471 487.5 332.5C486.097 335.909 485.43 339.575 485.5 343.5C484.886 347.135 484.552 350.802 484.5 354.5C483.796 358.815 482.463 362.815 480.5 366.5C478.856 364.519 477.19 362.519 475.5 360.5C470.705 357.933 466.038 355.1 461.5 352C441.374 344.465 420.707 338.465 399.5 334C353.123 327.018 306.457 323.851 259.5 324.5C209.854 323.709 160.521 326.876 111.5 334C89.337 338.204 68.004 344.871 47.5 354C43.249 356.945 39.249 360.112 35.5 363.5C34.504 363.414 33.671 363.748 33 364.5C31.57 361.647 30.737 358.647 30.5 355.5C28.901 355.768 27.568 355.434 26.5 354.5C27.5 354.5 28.5 354.5 29.5 354.5C29.665 350.818 29.499 347.152 29 343.5C24.476 318.885 20.476 294.219 17 269.5C16.507 266.325 15.34 263.659 13.5 261.5C13.852 256.902 14.018 252.235 14 247.5C17.404 242.621 21.237 238.288 25.5 234.5C32.324 232.421 38.658 229.254 44.5 225C51.35 222.081 58.35 219.414 65.5 217C110.504 203.959 156.504 196.959 203.5 196C267.75 193.232 331.75 195.899 395.5 204C420.173 207.835 444.173 214.168 467.5 223C474.939 227.386 482.605 231.219 490.5 234.5Z" fill="#22BEFD"/>
<path fill-rule="evenodd" clip-rule="evenodd" d="M256.5 203.5C258.932 204.75 261.266 206.25 263.5 208C280.653 224.987 297.653 242.154 314.5 259.5C295.735 278.387 276.735 297.054 257.5 315.5C254.46 312.99 251.46 310.49 248.5 308C233.903 292.281 218.736 277.114 203 262.5C201 260.5 201 258.5 203 256.5C221.286 239.231 239.119 221.565 256.5 203.5Z" fill="#FBD765"/>
<path fill-rule="evenodd" clip-rule="evenodd" d="M501.5 260.5C502.507 263.322 503.34 266.322 504 269.5C508.404 277.306 512.571 285.306 516.5 293.5C515.662 299.539 514.662 305.539 513.5 311.5C511.96 313.838 511.294 316.505 511.5 319.5C510.869 323.804 510.369 328.137 510 332.5C509.439 334.725 508.439 336.725 507 338.5C501.396 343.525 495.896 348.691 490.5 354C488.527 354.495 486.527 354.662 484.5 354.5C484.552 350.802 484.886 347.135 485.5 343.5C486.903 340.091 487.57 336.425 487.5 332.5C490.616 308.471 493.949 284.471 497.5 260.5C498.833 260.5 500.167 260.5 501.5 260.5Z" fill="#F8D766"/>
<path fill-rule="evenodd" clip-rule="evenodd" d="M13.5 261.5C15.34 263.659 16.507 266.325 17 269.5C20.476 294.219 24.476 318.885 29 343.5C29.499 347.152 29.665 350.818 29.5 354.5C28.5 354.5 27.5 354.5 26.5 354.5C19.732 348.97 13.399 342.97 7.5 336.5C4.752 322.185 2.085 307.852 -0.5 293.5C2.67 285.825 6.504 278.491 11 271.5C12.026 268.198 12.86 264.865 13.5 261.5Z" fill="#F8D766"/>
<path fill-rule="evenodd" clip-rule="evenodd" d="M513.5 311.5C513.435 314.428 512.768 317.095 511.5 319.5C511.294 316.505 511.96 313.838 513.5 311.5Z" fill="#8FB296"/>
<path fill-rule="evenodd" clip-rule="evenodd" d="M480.5 366.5C479.841 369.455 479.508 372.455 479.5 375.5C478.167 375.5 476.833 375.5 475.5 375.5C475.5 376.5 475.5 377.5 475.5 378.5C463.535 384.995 451.202 390.828 438.5 396C420.052 398.72 401.718 402.22 383.5 406.5C302.232 416.804 220.898 417.137 139.5 407.5C120.873 404.196 102.206 401.196 83.4999 398.5C74.0529 395.607 64.7189 392.44 55.4999 389C52.3569 385.428 48.3569 383.428 43.4999 383C40.3279 380.994 37.6619 378.494 35.4999 375.5C33.0169 371.374 33.0169 367.374 35.4999 363.5C39.2489 360.112 43.2489 356.945 47.4999 354C68.0039 344.871 89.3369 338.204 111.5 334C160.521 326.876 209.854 323.709 259.5 324.5C306.457 323.851 353.123 327.018 399.5 334C420.707 338.465 441.374 344.465 461.5 352C466.038 355.1 470.705 357.933 475.5 360.5C477.19 362.519 478.856 364.519 480.5 366.5Z" fill="#0266BA"/>
<path fill-rule="evenodd" clip-rule="evenodd" d="M487.5 332.5C487.57 336.425 486.903 340.091 485.5 343.5C485.43 339.575 486.097 335.909 487.5 332.5Z" fill="#85C4B0"/>
<path fill-rule="evenodd" clip-rule="evenodd" d="M203.5 343.5C238.168 343.333 272.835 343.5 307.5 344C342.576 344.718 377.243 348.718 411.5 356C420.813 358.045 429.48 361.545 437.5 366.5C439.075 370.127 438.408 373.293 435.5 376C430.14 378.348 424.807 380.682 419.5 383C385.264 390.31 350.597 394.643 315.5 396C244.764 399.951 174.43 396.618 104.5 386C99.729 384.042 94.729 382.709 89.5 382C84.758 379.88 80.258 377.38 76 374.5C74.773 370.409 75.606 366.909 78.5 364C86.659 360.613 94.992 357.613 103.5 355C118.212 352.994 132.879 350.661 147.5 348C166.294 346.144 184.961 344.644 203.5 343.5Z" fill="#01439A"/>
</g>
<defs>
<clipPath id="clip0_1_48">
<rect width="517" height="414" fill="white"/>
</clipPath>
</defs>
</svg>
